<?xml version="1.0" encoding="UTF-8" standalone="no"?>
<svg width="317.5mm" height="164.306mm"
 xmlns="http://www.w3.org/2000/svg" xmlns:xlink="http://www.w3.org/1999/xlink"  version="1.2" baseProfile="tiny">
<desc>Created by HiQPdf</desc>
<defs>
</defs>
<g fill="none" stroke="black" stroke-width="1" fill-rule="evenodd" stroke-linecap="square" stroke-linejoin="bevel" >

<g fill="#000000" fill-opacity="1" stroke="#000000" stroke-opacity="1" stroke-width="1" stroke-linecap="square" stroke-linejoin="miter" stroke-miterlimit="2" transform="matrix(1,0,0,1,0,0)"
>
</g>

<g fill="#000000" fill-opacity="1" stroke="#000000" stroke-opacity="1" stroke-width="1" stroke-linecap="square" stroke-linejoin="miter" stroke-miterlimit="2" transform="matrix(1,0,0,1,0,0)"
>
</g>

<g fill="#000000" fill-opacity="1" stroke="#000000" stroke-opacity="1" stroke-width="1" stroke-linecap="square" stroke-linejoin="miter" stroke-miterlimit="2" transform="matrix(1,0,0,1,0,0)"
>
</g>

<g fill="#000000" fill-opacity="1" stroke="#000000" stroke-opacity="1" stroke-width="1" stroke-linecap="square" stroke-linejoin="miter" stroke-miterlimit="2" transform="matrix(1,0,0,1,0,0)"
>
</g>

<g fill="#000000" fill-opacity="1" stroke="#000000" stroke-opacity="1" stroke-width="1" stroke-linecap="square" stroke-linejoin="miter" stroke-miterlimit="2" transform="matrix(1,0,0,1,8,8)"
>
</g>

<g fill="#0063b1" fill-opacity="1" stroke="none" transform="matrix(1,0,0,1,121,138)"
>
<path vector-effect="none" fill-rule="evenodd" d="M42.2082,127.236 L89.0392,174.13 L219.531,43.4673 L235.63,59.5498 L89.0392,206.329 L26.1087,143.313 L42.2082,127.236 M255.797,231.586 C244.749,231.234 235.26,223.775 233.571,213.194 C231.494,201.287 240.329,190.222 253.197,188.305 C265.935,186.621 279.969,192.993 283.348,209.462 C286.597,233.27 268.011,252.868 240.073,255.758 C239.032,255.878 238.901,255.275 238.901,255.275 L237.729,247.822 C237.729,247.822 237.604,247.1 238.378,246.861 C246.308,244.699 253.197,240.967 255.797,231.586 M193.219,231.586 C182.171,231.234 172.682,223.775 170.993,213.194 C168.916,201.287 177.751,190.222 190.619,188.305 C203.357,186.621 217.391,192.993 220.771,209.462 C224.019,233.27 205.433,252.868 177.495,255.758 C176.454,255.878 176.323,255.275 176.323,255.275 L175.151,247.822 C175.151,247.822 175.026,247.1 175.8,246.861 C183.73,244.699 190.619,240.967 193.219,231.586 M91.2749,25.0308 C102.323,25.3835 111.812,32.8416 113.501,43.4229 C115.578,55.3298 106.743,66.3947 93.8747,68.3118 C81.1373,69.9957 67.1028,63.6242 63.7236,47.1548 C60.4753,23.3468 79.0609,3.74862 106.999,0.858667 C108.04,0.7392 108.171,1.34222 108.171,1.34222 L109.343,8.79467 C109.343,8.79467 109.468,9.51716 108.694,9.75609 C100.764,11.9179 93.8747,15.6498 91.2749,25.0308 M28.6971,25.0308 C39.745,25.3835 49.234,32.8416 50.9236,43.4229 C53.0001,55.3298 44.1652,66.3947 31.297,68.3118 C18.5595,69.9957 4.52505,63.6242 1.14585,47.1548 C-2.10251,23.3468 16.4831,3.74862 44.4212,0.858667 C45.4623,0.7392 45.5931,1.34222 45.5931,1.34222 L46.765,8.79467 C46.765,8.79467 46.8902,9.51716 46.1165,9.75609 C38.1862,11.9179 31.297,15.6498 28.6971,25.0308 "/>
</g>

<g fill="#000000" fill-opacity="1" stroke="#000000" stroke-opacity="1" stroke-width="1" stroke-linecap="square" stroke-linejoin="miter" stroke-miterlimit="2" transform="matrix(1,0,0,1,8,8)"
>
</g>

<g fill="#000000" fill-opacity="1" stroke="#000000" stroke-opacity="1" stroke-width="1" stroke-linecap="square" stroke-linejoin="miter" stroke-miterlimit="2" transform="matrix(1,0,0,1,8,8)"
>
</g>

<g fill="#000000" fill-opacity="1" stroke="#000000" stroke-opacity="1" stroke-width="1" stroke-linecap="square" stroke-linejoin="miter" stroke-miterlimit="2" transform="matrix(1,0,0,1,0,0)"
>
</g>

<g fill="#000000" fill-opacity="1" stroke="#000000" stroke-opacity="1" stroke-width="1" stroke-linecap="square" stroke-linejoin="miter" stroke-miterlimit="2" transform="matrix(1,0,0,1,0,0)"
>
</g>

<g fill="#000000" fill-opacity="1" stroke="#000000" stroke-opacity="1" stroke-width="1" stroke-linecap="square" stroke-linejoin="miter" stroke-miterlimit="2" transform="matrix(1,0,0,1,0,0)"
>
</g>

<g fill="#000000" fill-opacity="1" stroke="#000000" stroke-opacity="1" stroke-width="1" stroke-linecap="square" stroke-linejoin="miter" stroke-miterlimit="2" transform="matrix(1,0,0,1,0,0)"
>
</g>

<g fill="#000000" fill-opacity="1" stroke="#000000" stroke-opacity="1" stroke-width="1" stroke-linecap="square" stroke-linejoin="miter" stroke-miterlimit="2" transform="matrix(1,0,0,1,8,8)"
>
</g>

<g fill="#000000" fill-opacity="1" stroke="#000000" stroke-opacity="1" stroke-width="1" stroke-linecap="square" stroke-linejoin="miter" stroke-miterlimit="2" transform="matrix(1,0,0,1,0,0)"
>
</g>

<g fill="#000000" fill-opacity="1" stroke="#000000" stroke-opacity="1" stroke-width="1" stroke-linecap="square" stroke-linejoin="miter" stroke-miterlimit="2" transform="matrix(1,0,0,1,0,0)"
>
</g>

<g fill="#000000" fill-opacity="1" stroke="#000000" stroke-opacity="1" stroke-width="1" stroke-linecap="square" stroke-linejoin="miter" stroke-miterlimit="2" transform="matrix(1,0,0,1,0,0)"
>
</g>

<g fill="#000000" fill-opacity="1" stroke="#000000" stroke-opacity="1" stroke-width="1" stroke-linecap="square" stroke-linejoin="miter" stroke-miterlimit="2" transform="matrix(1,0,0,1,0,0)"
>
</g>

<g fill="#000000" fill-opacity="1" stroke="#000000" stroke-opacity="1" stroke-width="1" stroke-linecap="square" stroke-linejoin="miter" stroke-miterlimit="2" transform="matrix(1,0,0,1,0,0)"
>
</g>

<g fill="#000000" fill-opacity="1" stroke="#000000" stroke-opacity="1" stroke-width="1" stroke-linecap="square" stroke-linejoin="miter" stroke-miterlimit="2" transform="matrix(1,0,0,1,0,0)"
>
</g>
</g>
</svg>
