<?xml version="1.0" encoding="UTF-8" standalone="no"?>
<svg width="317.5mm" height="164.306mm"
 xmlns="http://www.w3.org/2000/svg" xmlns:xlink="http://www.w3.org/1999/xlink"  version="1.2" baseProfile="tiny">
<desc>Created by HiQPdf</desc>
<defs>
</defs>
<g fill="none" stroke="black" stroke-width="1" fill-rule="evenodd" stroke-linecap="square" stroke-linejoin="bevel" >

<g fill="#000000" fill-opacity="1" stroke="#000000" stroke-opacity="1" stroke-width="1" stroke-linecap="square" stroke-linejoin="miter" stroke-miterlimit="2" transform="matrix(1,0,0,1,0,0)"
>
</g>

<g fill="#000000" fill-opacity="1" stroke="#000000" stroke-opacity="1" stroke-width="1" stroke-linecap="square" stroke-linejoin="miter" stroke-miterlimit="2" transform="matrix(1,0,0,1,0,0)"
>
</g>

<g fill="#000000" fill-opacity="1" stroke="#000000" stroke-opacity="1" stroke-width="1" stroke-linecap="square" stroke-linejoin="miter" stroke-miterlimit="2" transform="matrix(1,0,0,1,0,0)"
>
</g>

<g fill="#000000" fill-opacity="1" stroke="#000000" stroke-opacity="1" stroke-width="1" stroke-linecap="square" stroke-linejoin="miter" stroke-miterlimit="2" transform="matrix(1,0,0,1,0,0)"
>
</g>

<g fill="#000000" fill-opacity="1" stroke="#000000" stroke-opacity="1" stroke-width="1" stroke-linecap="square" stroke-linejoin="miter" stroke-miterlimit="2" transform="matrix(1,0,0,1,8,8)"
>
</g>

<g fill="#000000" fill-opacity="1" stroke="#000000" stroke-opacity="1" stroke-width="1" stroke-linecap="square" stroke-linejoin="miter" stroke-miterlimit="2" transform="matrix(1,0,0,1,126,121)"
>
</g>

<g fill="#0063b1" fill-opacity="1" stroke="none" transform="matrix(1,0,0,1,126,121)"
>
<path vector-effect="none" fill-rule="evenodd" d="M57.6194,161.573 C44.7682,161.573 32.1673,166.761 19.72,177.308 L12.9332,183.054 L12.9332,158.518 L14.509,157.277 C19.6119,153.261 26.3817,149.899 34.824,147.14 C43.2379,144.386 51.208,142.998 58.7287,142.998 C72.8429,142.998 84.0272,147.47 91.9632,156.435 C99.8139,165.299 103.665,177.939 103.665,194.181 L103.665,280.146 L84.0727,280.146 L84.0727,264.331 C80.7561,268.376 76.8706,271.886 72.4219,274.844 C64.0535,280.419 54.7351,283.218 44.552,283.218 C31.5415,283.218 21.0171,279.497 13.2119,271.988 C5.4011,264.485 1.46439,254.927 1.46439,243.584 C1.46439,219.343 17.7119,204.575 48.7504,199.688 L84.0102,194.449 C83.2137,171.938 74.5666,161.573 57.6194,161.573 M54.0183,217.432 C41.4345,219.229 32.7703,222.074 28.1168,225.743 C23.8786,229.094 21.677,234.749 21.677,243.089 C21.677,249.449 23.725,254.523 27.8836,258.562 C32.0251,262.59 37.9188,264.644 45.7808,264.644 C56.7831,264.644 65.7773,260.656 73.0477,252.561 C80.3863,244.386 84.0727,233.799 84.0727,220.606 L84.0727,213.085 L54.0183,217.432"/>
</g>

<g fill="#000000" fill-opacity="1" stroke="#000000" stroke-opacity="1" stroke-width="1" stroke-linecap="square" stroke-linejoin="miter" stroke-miterlimit="2" transform="matrix(1,0,0,1,126,121)"
>
</g>

<g fill="#0063b1" fill-opacity="1" stroke="none" transform="matrix(-1,0,0,1,556.419,121)"
>
<path vector-effect="none" fill-rule="nonzero" d="M215.428,238.512 C213.628,236.498 212.059,234.478 210.708,232.458 L241.978,204.438 L162.792,200.178 C159.418,200.178 156.489,202.643 156.489,206.005 L152.222,284.697 L181.688,258.469 C208.014,281.332 247.822,281.783 274.593,257.793 C275.722,256.672 277.07,255.553 278.197,254.434 C256.595,261.829 231.628,256.447 215.428,238.512 "/>
</g>

<g fill="#000000" fill-opacity="1" stroke="#000000" stroke-opacity="1" stroke-width="1" stroke-linecap="square" stroke-linejoin="miter" stroke-miterlimit="2" transform="matrix(1,0,0,1,126,121)"
>
</g>

<g fill="#0063b1" fill-opacity="1" stroke="none" transform="matrix(1,0,0,-1,126,237.351)"
>
<path vector-effect="none" fill-rule="nonzero" d="M63.3792,54.2499 C61.5791,52.2355 60.01,50.2156 58.6593,48.1957 L89.929,20.1763 L10.7427,15.916 C7.36941,15.916 4.4398,18.3809 4.4398,21.7428 L0.173456,100.435 L29.6389,74.2064 C55.9648,97.07 95.7729,97.5206 122.544,73.5312 C123.673,72.4097 125.021,71.2909 126.148,70.1721 C104.546,77.5669 79.5795,72.1851 63.3792,54.2499 "/>
</g>

<g fill="#000000" fill-opacity="1" stroke="#000000" stroke-opacity="1" stroke-width="1" stroke-linecap="square" stroke-linejoin="miter" stroke-miterlimit="2" transform="matrix(1,0,0,1,126,121)"
>
</g>

<g fill="#0063b1" fill-opacity="1" stroke="none" transform="matrix(1,0,0,1,126,121)"
>
<path vector-effect="none" fill-rule="evenodd" d="M275.55,20.1723 L279.669,19.9106 L280.67,36.2378 L276.58,36.5108 C258.057,37.7396 234.783,38.5759 205.679,39.0993 C205.241,43.9064 204.9,49.015 204.627,54.6242 C211.487,53.2532 218.849,52.5876 226.836,52.5876 C229.043,52.5876 231.194,52.6616 233.333,52.8038 L235.944,42.5695 L252.288,46.1478 L251.253,50.2722 C250.781,52.1496 250.377,53.7311 249.779,56.018 C255.28,57.8214 260.389,60.4155 265.043,63.7492 C277.666,72.4987 284.083,84.5478 284.083,99.7258 C284.083,115.16 278.747,127.709 268.183,136.789 C258.466,145.043 244.545,150.402 226.722,152.792 L223.576,153.213 L217.142,137.688 L222.49,136.999 C237.195,135.111 248.243,130.924 255.684,124.563 C263.29,118.021 267.034,109.88 267.034,99.7258 C267.034,89.7531 262.795,82.0959 254.131,76.3842 C251.293,74.5354 248.38,73.079 245.262,71.9526 C240.37,86.5105 234.476,99.2308 227.485,110.222 C212.483,133.7 193.977,145.709 172.217,145.709 C163.257,145.709 156.095,142.859 151.105,137.284 C146.082,131.896 143.687,124.359 143.687,114.949 C143.687,98.332 151.509,83.9505 166.989,71.8559 C173.235,66.8724 180.045,62.8675 187.406,59.8353 C187.588,52.6445 187.969,45.8178 188.567,39.3325 C184.738,39.3439 180.403,39.3666 172.513,39.4122 C162.131,39.4747 156.811,39.4918 150.468,39.4918 L146.344,39.4918 L146.344,22.9713 L150.468,22.9713 C157.005,22.9713 162.495,22.9485 173.002,22.8973 C181.78,22.8461 186.189,22.8234 190.313,22.812 C191.041,17.2084 191.992,11.474 193.232,4.983 L194.034,0.778916 L210.81,4.63598 L209.946,8.6182 C208.956,13.1807 208.165,17.8058 207.556,22.5617 C235.318,22.061 258.057,21.2589 275.55,20.1723 M226.836,68.9432 C218.61,68.9432 211.066,69.825 204.228,71.5828 L204.228,71.9355 C204.228,86.2431 205.059,99.0602 206.709,110.307 C208.848,107.65 210.964,104.704 213.057,101.489 C219.162,91.8751 224.282,81.106 228.52,68.9489 C228.014,68.9432 227.456,68.9432 226.836,68.9432 M178.088,84.6047 C166.42,93.7809 160.737,103.89 160.737,114.949 C160.737,125.127 164.27,129.354 172.217,129.354 C178.867,129.354 185.296,127.533 191.656,123.875 C189.005,110.626 187.531,95.4363 187.241,78.3811 C183.97,80.2015 180.927,82.2666 178.088,84.6047 "/>
</g>

<g fill="#000000" fill-opacity="1" stroke="#000000" stroke-opacity="1" stroke-width="1" stroke-linecap="square" stroke-linejoin="miter" stroke-miterlimit="2" transform="matrix(1,0,0,1,126,121)"
>
</g>

<g fill="#000000" fill-opacity="1" stroke="#000000" stroke-opacity="1" stroke-width="1" stroke-linecap="square" stroke-linejoin="miter" stroke-miterlimit="2" transform="matrix(1,0,0,1,8,8)"
>
</g>

<g fill="#000000" fill-opacity="1" stroke="#000000" stroke-opacity="1" stroke-width="1" stroke-linecap="square" stroke-linejoin="miter" stroke-miterlimit="2" transform="matrix(1,0,0,1,8,8)"
>
</g>

<g fill="#000000" fill-opacity="1" stroke="#000000" stroke-opacity="1" stroke-width="1" stroke-linecap="square" stroke-linejoin="miter" stroke-miterlimit="2" transform="matrix(1,0,0,1,0,0)"
>
</g>

<g fill="#000000" fill-opacity="1" stroke="#000000" stroke-opacity="1" stroke-width="1" stroke-linecap="square" stroke-linejoin="miter" stroke-miterlimit="2" transform="matrix(1,0,0,1,0,0)"
>
</g>

<g fill="#000000" fill-opacity="1" stroke="#000000" stroke-opacity="1" stroke-width="1" stroke-linecap="square" stroke-linejoin="miter" stroke-miterlimit="2" transform="matrix(1,0,0,1,0,0)"
>
</g>

<g fill="#000000" fill-opacity="1" stroke="#000000" stroke-opacity="1" stroke-width="1" stroke-linecap="square" stroke-linejoin="miter" stroke-miterlimit="2" transform="matrix(1,0,0,1,0,0)"
>
</g>

<g fill="#000000" fill-opacity="1" stroke="#000000" stroke-opacity="1" stroke-width="1" stroke-linecap="square" stroke-linejoin="miter" stroke-miterlimit="2" transform="matrix(1,0,0,1,8,8)"
>
</g>

<g fill="#000000" fill-opacity="1" stroke="#000000" stroke-opacity="1" stroke-width="1" stroke-linecap="square" stroke-linejoin="miter" stroke-miterlimit="2" transform="matrix(1,0,0,1,8,8)"
>
</g>

<g fill="#000000" fill-opacity="1" stroke="#000000" stroke-opacity="1" stroke-width="1" stroke-linecap="square" stroke-linejoin="miter" stroke-miterlimit="2" transform="matrix(1,0,0,1,8,8)"
>
</g>

<g fill="#000000" fill-opacity="1" stroke="#000000" stroke-opacity="1" stroke-width="1" stroke-linecap="square" stroke-linejoin="miter" stroke-miterlimit="2" transform="matrix(1,0,0,1,0,0)"
>
</g>

<g fill="#000000" fill-opacity="1" stroke="#000000" stroke-opacity="1" stroke-width="1" stroke-linecap="square" stroke-linejoin="miter" stroke-miterlimit="2" transform="matrix(1,0,0,1,0,0)"
>
</g>

<g fill="#000000" fill-opacity="1" stroke="#000000" stroke-opacity="1" stroke-width="1" stroke-linecap="square" stroke-linejoin="miter" stroke-miterlimit="2" transform="matrix(1,0,0,1,0,0)"
>
</g>

<g fill="#000000" fill-opacity="1" stroke="#000000" stroke-opacity="1" stroke-width="1" stroke-linecap="square" stroke-linejoin="miter" stroke-miterlimit="2" transform="matrix(1,0,0,1,0,0)"
>
</g>

<g fill="#000000" fill-opacity="1" stroke="#000000" stroke-opacity="1" stroke-width="1" stroke-linecap="square" stroke-linejoin="miter" stroke-miterlimit="2" transform="matrix(1,0,0,1,0,0)"
>
</g>

<g fill="#000000" fill-opacity="1" stroke="#000000" stroke-opacity="1" stroke-width="1" stroke-linecap="square" stroke-linejoin="miter" stroke-miterlimit="2" transform="matrix(1,0,0,1,0,0)"
>
</g>
</g>
</svg>
