<?xml version="1.0" encoding="UTF-8" standalone="no"?>
<svg width="317.5mm" height="164.306mm"
 xmlns="http://www.w3.org/2000/svg" xmlns:xlink="http://www.w3.org/1999/xlink"  version="1.2" baseProfile="tiny">
<desc>Created by HiQPdf</desc>
<defs>
</defs>
<g fill="none" stroke="black" stroke-width="1" fill-rule="evenodd" stroke-linecap="square" stroke-linejoin="bevel" >

<g fill="#000000" fill-opacity="1" stroke="#000000" stroke-opacity="1" stroke-width="1" stroke-linecap="square" stroke-linejoin="miter" stroke-miterlimit="2" transform="matrix(1,0,0,1,0,0)"
>
</g>

<g fill="#000000" fill-opacity="1" stroke="#000000" stroke-opacity="1" stroke-width="1" stroke-linecap="square" stroke-linejoin="miter" stroke-miterlimit="2" transform="matrix(1,0,0,1,0,0)"
>
</g>

<g fill="#000000" fill-opacity="1" stroke="#000000" stroke-opacity="1" stroke-width="1" stroke-linecap="square" stroke-linejoin="miter" stroke-miterlimit="2" transform="matrix(1,0,0,1,0,0)"
>
</g>

<g fill="#000000" fill-opacity="1" stroke="#000000" stroke-opacity="1" stroke-width="1" stroke-linecap="square" stroke-linejoin="miter" stroke-miterlimit="2" transform="matrix(1,0,0,1,0,0)"
>
</g>

<g fill="#000000" fill-opacity="1" stroke="#000000" stroke-opacity="1" stroke-width="1" stroke-linecap="square" stroke-linejoin="miter" stroke-miterlimit="2" transform="matrix(1,0,0,1,8,8)"
>
</g>

<g fill="#0063b1" fill-opacity="1" stroke="none" transform="matrix(1,0,0,1,116,138)"
>
<path vector-effect="none" fill-rule="evenodd" d="M287.494,118.945 L291.818,119.531 L291.818,137.121 L287.523,137.729 C275.258,139.453 269.142,149.192 269.142,168.922 L269.142,210.2 C269.142,225.492 265.632,236.892 258.299,244.186 C251.063,251.365 240.601,255.125 227.135,255.632 L221.953,255.831 L221.953,234.247 L226.674,233.991 C233.82,233.599 238.428,231.579 240.925,228.12 C243.662,224.343 245.209,216.981 245.209,206.172 L245.209,167.812 C245.209,149.283 250.158,136.017 260.193,128.439 C250.198,121.459 245.209,108.835 245.209,91.2284 L245.209,50.5016 C245.209,39.687 243.662,32.3256 240.925,28.5482 C238.428,25.095 233.82,23.0698 226.674,22.683 L221.953,22.427 L221.953,0.843307 L227.135,1.03673 C240.601,1.54304 251.063,5.30908 258.299,12.4942 C265.632,19.7816 269.142,31.1765 269.142,46.4739 L269.142,90.119 C269.142,108.318 275.161,117.283 287.494,118.945 M33.6112,12.4947 C40.8418,5.30965 51.3094,1.54361 64.775,1.0373 L69.9519,0.843876 L69.9519,22.4275 L65.2358,22.6835 C58.0848,23.0704 53.4825,25.0956 50.9794,28.5488 C48.2431,32.3262 46.6957,39.6876 46.6957,50.5022 L46.6957,91.2289 C46.6957,108.938 41.6496,121.619 31.5291,128.565 C41.6724,135.841 46.6957,149.148 46.6957,167.813 L46.6957,206.173 C46.6957,216.982 48.2431,224.343 50.9794,228.121 C53.4825,231.58 58.0848,233.599 65.2358,233.992 L69.9519,234.242 L69.9519,255.826 L64.775,255.632 C51.3094,255.126 40.8418,251.365 33.6112,244.186 C26.2726,236.893 22.7625,225.492 22.7625,210.201 L22.7625,168.922 C22.7625,149.193 16.6527,139.454 4.38172,137.73 L0.0866133,137.121 L0.0866133,119.525 L4.41017,118.945 C16.7437,117.284 22.7625,108.318 22.7625,90.1196 L22.7625,46.4745 C22.7625,31.177 26.2726,19.7822 33.6112,12.4947 "/>
</g>

<g fill="#000000" fill-opacity="1" stroke="#000000" stroke-opacity="1" stroke-width="1" stroke-linecap="square" stroke-linejoin="miter" stroke-miterlimit="2" transform="matrix(1,0,0,1,8,8)"
>
</g>

<g fill="#000000" fill-opacity="1" stroke="#000000" stroke-opacity="1" stroke-width="1" stroke-linecap="square" stroke-linejoin="miter" stroke-miterlimit="2" transform="matrix(1,0,0,1,8,8)"
>
</g>

<g fill="#000000" fill-opacity="1" stroke="#000000" stroke-opacity="1" stroke-width="1" stroke-linecap="square" stroke-linejoin="miter" stroke-miterlimit="2" transform="matrix(1,0,0,1,0,0)"
>
</g>

<g fill="#000000" fill-opacity="1" stroke="#000000" stroke-opacity="1" stroke-width="1" stroke-linecap="square" stroke-linejoin="miter" stroke-miterlimit="2" transform="matrix(1,0,0,1,0,0)"
>
</g>

<g fill="#000000" fill-opacity="1" stroke="#000000" stroke-opacity="1" stroke-width="1" stroke-linecap="square" stroke-linejoin="miter" stroke-miterlimit="2" transform="matrix(1,0,0,1,0,0)"
>
</g>

<g fill="#000000" fill-opacity="1" stroke="#000000" stroke-opacity="1" stroke-width="1" stroke-linecap="square" stroke-linejoin="miter" stroke-miterlimit="2" transform="matrix(1,0,0,1,0,0)"
>
</g>

<g fill="#000000" fill-opacity="1" stroke="#000000" stroke-opacity="1" stroke-width="1" stroke-linecap="square" stroke-linejoin="miter" stroke-miterlimit="2" transform="matrix(1,0,0,1,8,8)"
>
</g>

<g fill="#000000" fill-opacity="1" stroke="#000000" stroke-opacity="1" stroke-width="1" stroke-linecap="square" stroke-linejoin="miter" stroke-miterlimit="2" transform="matrix(1,0,0,1,0,0)"
>
</g>

<g fill="#000000" fill-opacity="1" stroke="#000000" stroke-opacity="1" stroke-width="1" stroke-linecap="square" stroke-linejoin="miter" stroke-miterlimit="2" transform="matrix(1,0,0,1,0,0)"
>
</g>

<g fill="#000000" fill-opacity="1" stroke="#000000" stroke-opacity="1" stroke-width="1" stroke-linecap="square" stroke-linejoin="miter" stroke-miterlimit="2" transform="matrix(1,0,0,1,0,0)"
>
</g>

<g fill="#000000" fill-opacity="1" stroke="#000000" stroke-opacity="1" stroke-width="1" stroke-linecap="square" stroke-linejoin="miter" stroke-miterlimit="2" transform="matrix(1,0,0,1,0,0)"
>
</g>

<g fill="#000000" fill-opacity="1" stroke="#000000" stroke-opacity="1" stroke-width="1" stroke-linecap="square" stroke-linejoin="miter" stroke-miterlimit="2" transform="matrix(1,0,0,1,0,0)"
>
</g>

<g fill="#000000" fill-opacity="1" stroke="#000000" stroke-opacity="1" stroke-width="1" stroke-linecap="square" stroke-linejoin="miter" stroke-miterlimit="2" transform="matrix(1,0,0,1,0,0)"
>
</g>
</g>
</svg>
