<?xml version="1.0" encoding="UTF-8" standalone="no"?>
<svg width="317.5mm" height="164.306mm"
 xmlns="http://www.w3.org/2000/svg" xmlns:xlink="http://www.w3.org/1999/xlink"  version="1.2" baseProfile="tiny">
<desc>Created by HiQPdf</desc>
<defs>
</defs>
<g fill="none" stroke="black" stroke-width="1" fill-rule="evenodd" stroke-linecap="square" stroke-linejoin="bevel" >

<g fill="#000000" fill-opacity="1" stroke="#000000" stroke-opacity="1" stroke-width="1" stroke-linecap="square" stroke-linejoin="miter" stroke-miterlimit="2" transform="matrix(1,0,0,1,0,0)"
>
</g>

<g fill="#000000" fill-opacity="1" stroke="#000000" stroke-opacity="1" stroke-width="1" stroke-linecap="square" stroke-linejoin="miter" stroke-miterlimit="2" transform="matrix(1,0,0,1,0,0)"
>
</g>

<g fill="#000000" fill-opacity="1" stroke="#000000" stroke-opacity="1" stroke-width="1" stroke-linecap="square" stroke-linejoin="miter" stroke-miterlimit="2" transform="matrix(1,0,0,1,0,0)"
>
</g>

<g fill="#000000" fill-opacity="1" stroke="#000000" stroke-opacity="1" stroke-width="1" stroke-linecap="square" stroke-linejoin="miter" stroke-miterlimit="2" transform="matrix(1,0,0,1,0,0)"
>
</g>

<g fill="#000000" fill-opacity="1" stroke="#000000" stroke-opacity="1" stroke-width="1" stroke-linecap="square" stroke-linejoin="miter" stroke-miterlimit="2" transform="matrix(1,0,0,1,8,8)"
>
</g>

<g fill="#000000" fill-opacity="1" stroke="#000000" stroke-opacity="1" stroke-width="1" stroke-linecap="square" stroke-linejoin="miter" stroke-miterlimit="2" transform="matrix(1,0,0,1,94,152)"
>
</g>

<g fill="#0063b1" fill-opacity="1" stroke="none" transform="matrix(1,0,0,1,94,152)"
>
<path vector-effect="none" fill-rule="evenodd" d="M216.641,192.502 C217.023,195.096 217.475,197.977 217.969,200.767 C249.716,195.144 276.693,179.805 294.66,156.988 C312.372,134.484 319.82,106.963 316.213,77.3855 C308.026,34.515 275.418,19.4896 246.677,23.6565 C217.788,28.3869 197.914,55.9609 202.568,85.0975 C206.292,110.604 227.313,129.674 252.569,130.578 L265.723,131.045 L262.487,143.812 C256.229,168.51 229.731,185.471 216.641,192.502 M201.803,224.286 L199.402,215.505 C196.772,205.869 194.626,188.404 194.535,187.666 L193.574,179.789 L200.846,176.632 C208.624,173.22 226.888,162.956 236.477,149.642 C208.077,142.446 185.982,118.582 181.562,88.3077 C175.092,47.7811 202.839,9.2902 243.442,2.6465 C281.23,-2.85449 326.535,17.1457 337.16,73.7819 L337.256,74.425 C341.617,109.382 332.416,143.376 311.352,170.142 C288.078,199.704 252.388,218.572 210.845,223.265 L201.803,224.286"/>
</g>

<g fill="#000000" fill-opacity="1" stroke="#000000" stroke-opacity="1" stroke-width="1" stroke-linecap="square" stroke-linejoin="miter" stroke-miterlimit="2" transform="matrix(1,0,0,1,94,152)"
>
</g>

<g fill="#0063b1" fill-opacity="1" stroke="none" transform="matrix(1,0,0,1,94,152)"
>
<path vector-effect="none" fill-rule="evenodd" d="M36.0156,192.502 C36.3981,195.096 36.8496,197.977 37.3437,200.767 C69.0912,195.144 96.0681,179.805 114.035,156.988 C131.747,134.484 139.195,106.963 135.588,77.3855 C127.401,34.515 94.7984,19.4896 66.0524,23.6565 C37.1631,28.3869 17.289,55.9609 21.9428,85.0975 C25.6668,110.604 46.6884,129.674 71.944,130.578 L85.0977,131.045 L81.8624,143.812 C75.6043,168.51 49.1056,185.471 36.0156,192.502 M21.1777,224.286 L18.7765,215.505 C16.1468,205.869 14.0006,188.404 13.9102,187.666 L12.9487,179.789 L20.2215,176.632 C27.999,173.22 46.2634,162.956 55.8524,149.642 C27.4518,142.446 5.35712,118.582 0.937125,88.3077 C-5.5335,47.7811 22.2137,9.2902 62.8171,2.6465 C100.61,-2.85449 145.91,17.1457 156.535,73.7819 L156.631,74.425 C160.992,109.382 151.791,143.376 130.727,170.142 C107.453,199.704 71.7634,218.572 30.2196,223.265 L21.1777,224.286"/>
</g>

<g fill="#000000" fill-opacity="1" stroke="#000000" stroke-opacity="1" stroke-width="1" stroke-linecap="square" stroke-linejoin="miter" stroke-miterlimit="2" transform="matrix(1,0,0,1,94,152)"
>
</g>

<g fill="#000000" fill-opacity="1" stroke="#000000" stroke-opacity="1" stroke-width="1" stroke-linecap="square" stroke-linejoin="miter" stroke-miterlimit="2" transform="matrix(1,0,0,1,8,8)"
>
</g>

<g fill="#000000" fill-opacity="1" stroke="#000000" stroke-opacity="1" stroke-width="1" stroke-linecap="square" stroke-linejoin="miter" stroke-miterlimit="2" transform="matrix(1,0,0,1,8,8)"
>
</g>

<g fill="#000000" fill-opacity="1" stroke="#000000" stroke-opacity="1" stroke-width="1" stroke-linecap="square" stroke-linejoin="miter" stroke-miterlimit="2" transform="matrix(1,0,0,1,0,0)"
>
</g>

<g fill="#000000" fill-opacity="1" stroke="#000000" stroke-opacity="1" stroke-width="1" stroke-linecap="square" stroke-linejoin="miter" stroke-miterlimit="2" transform="matrix(1,0,0,1,0,0)"
>
</g>

<g fill="#000000" fill-opacity="1" stroke="#000000" stroke-opacity="1" stroke-width="1" stroke-linecap="square" stroke-linejoin="miter" stroke-miterlimit="2" transform="matrix(1,0,0,1,0,0)"
>
</g>

<g fill="#000000" fill-opacity="1" stroke="#000000" stroke-opacity="1" stroke-width="1" stroke-linecap="square" stroke-linejoin="miter" stroke-miterlimit="2" transform="matrix(1,0,0,1,0,0)"
>
</g>

<g fill="#000000" fill-opacity="1" stroke="#000000" stroke-opacity="1" stroke-width="1" stroke-linecap="square" stroke-linejoin="miter" stroke-miterlimit="2" transform="matrix(1,0,0,1,8,8)"
>
</g>

<g fill="#000000" fill-opacity="1" stroke="#000000" stroke-opacity="1" stroke-width="1" stroke-linecap="square" stroke-linejoin="miter" stroke-miterlimit="2" transform="matrix(1,0,0,1,8,8)"
>
</g>

<g fill="#000000" fill-opacity="1" stroke="#000000" stroke-opacity="1" stroke-width="1" stroke-linecap="square" stroke-linejoin="miter" stroke-miterlimit="2" transform="matrix(1,0,0,1,8,8)"
>
</g>

<g fill="#000000" fill-opacity="1" stroke="#000000" stroke-opacity="1" stroke-width="1" stroke-linecap="square" stroke-linejoin="miter" stroke-miterlimit="2" transform="matrix(1,0,0,1,0,0)"
>
</g>

<g fill="#000000" fill-opacity="1" stroke="#000000" stroke-opacity="1" stroke-width="1" stroke-linecap="square" stroke-linejoin="miter" stroke-miterlimit="2" transform="matrix(1,0,0,1,0,0)"
>
</g>

<g fill="#000000" fill-opacity="1" stroke="#000000" stroke-opacity="1" stroke-width="1" stroke-linecap="square" stroke-linejoin="miter" stroke-miterlimit="2" transform="matrix(1,0,0,1,0,0)"
>
</g>

<g fill="#000000" fill-opacity="1" stroke="#000000" stroke-opacity="1" stroke-width="1" stroke-linecap="square" stroke-linejoin="miter" stroke-miterlimit="2" transform="matrix(1,0,0,1,0,0)"
>
</g>

<g fill="#000000" fill-opacity="1" stroke="#000000" stroke-opacity="1" stroke-width="1" stroke-linecap="square" stroke-linejoin="miter" stroke-miterlimit="2" transform="matrix(1,0,0,1,0,0)"
>
</g>

<g fill="#000000" fill-opacity="1" stroke="#000000" stroke-opacity="1" stroke-width="1" stroke-linecap="square" stroke-linejoin="miter" stroke-miterlimit="2" transform="matrix(1,0,0,1,0,0)"
>
</g>
</g>
</svg>
